<svg width="139" height="68" viewBox="0 0 139 68" fill="none" xmlns="http://www.w3.org/2000/svg">
<path d="M51.5 16.8906C51.5 20.3594 50.8125 23.4375 49.4375 26.125C48.0938 28.7812 46.2188 30.9844 43.8125 32.7344C41.4375 34.4844 38.8281 35.7656 35.9844 36.5781C33.1406 37.3906 30.125 37.7969 26.9375 37.7969H19.4844V57.9531C19.4844 59.0469 19.6562 60.0156 20 60.8594C20.375 61.6719 21.125 62.2969 22.25 62.7344C22.8125 62.9531 23.7969 63.1562 25.2031 63.3438C26.6406 63.5312 27.9531 63.6406 29.1406 63.6719V67H0.59375V63.6719C1.34375 63.6094 2.42188 63.5 3.82812 63.3438C5.26562 63.1875 6.26562 62.9844 6.82812 62.7344C7.76562 62.3281 8.4375 61.7344 8.84375 60.9531C9.28125 60.1719 9.5 59.1719 9.5 57.9531V9.95312C9.5 8.85938 9.34375 7.875 9.03125 7C8.71875 6.125 7.98438 5.46875 6.82812 5.03125C5.64062 4.625 4.45312 4.34375 3.26562 4.1875C2.10938 4 1.10938 3.875 0.265625 3.8125V0.484375H30.6406C36.8281 0.484375 41.8438 1.98438 45.6875 4.98438C49.5625 7.95312 51.5 11.9219 51.5 16.8906ZM37.25 28.2344C38.3125 26.7344 39.0156 25.1875 39.3594 23.5938C39.7031 21.9688 39.875 20.5156 39.875 19.2344C39.875 17.4531 39.6562 15.6406 39.2188 13.7969C38.8125 11.9531 38.0938 10.3437 37.0625 8.96875C35.9688 7.5 34.5312 6.35937 32.75 5.54688C30.9688 4.73438 28.75 4.32812 26.0938 4.32812H19.4844V33.7188H24.2656C27.6406 33.7188 30.375 33.2031 32.4688 32.1719C34.5938 31.1094 36.1875 29.7969 37.25 28.2344ZM74.0469 61.6094C74.0469 63.3594 73.4062 64.8594 72.125 66.1094C70.875 67.3281 69.375 67.9375 67.625 67.9375C65.875 67.9375 64.3594 67.3281 63.0781 66.1094C61.8281 64.8594 61.2031 63.3594 61.2031 61.6094C61.2031 59.8594 61.8281 58.3594 63.0781 57.1094C64.3594 55.8281 65.875 55.1875 67.625 55.1875C69.375 55.1875 70.875 55.8281 72.125 57.1094C73.4062 58.3594 74.0469 59.8594 74.0469 61.6094Z" fill="#FDD16E"/>
<path d="M138.453 47.2188L137.047 67H85.0625V63.6719C85.8125 63.6094 86.8906 63.5 88.2969 63.3438C89.7344 63.1875 90.7344 62.9844 91.2969 62.7344C92.2344 62.3281 92.9062 61.7344 93.3125 60.9531C93.75 60.1719 93.9688 59.1719 93.9688 57.9531V10.3281C93.9688 9.26562 93.7812 8.32812 93.4062 7.51562C93.0625 6.70313 92.3594 6.04688 91.2969 5.54688C90.5781 5.17188 89.5625 4.8125 88.25 4.46875C86.9688 4.09375 85.9062 3.875 85.0625 3.8125V0.484375H113.141V3.8125C112.266 3.84375 111.125 4 109.719 4.28125C108.344 4.5625 107.344 4.8125 106.719 5.03125C105.656 5.40625 104.922 6.04688 104.516 6.95312C104.141 7.85937 103.953 8.82812 103.953 9.85938V54.5312C103.953 56.5938 104.047 58.2031 104.234 59.3594C104.453 60.4844 104.938 61.3594 105.688 61.9844C106.406 62.5469 107.469 62.9219 108.875 63.1094C110.312 63.2656 112.312 63.3438 114.875 63.3438C116.031 63.3438 117.234 63.3125 118.484 63.25C119.734 63.1875 120.922 63.0625 122.047 62.875C123.141 62.6875 124.141 62.4375 125.047 62.125C125.984 61.7812 126.672 61.3594 127.109 60.8594C128.391 59.4219 129.875 57.25 131.562 54.3438C133.281 51.4062 134.469 49.0312 135.125 47.2188H138.453Z" fill="white"/>
</svg>
