<svg width="122" height="45" viewBox="0 0 122 45" fill="none" xmlns="http://www.w3.org/2000/svg">
<path d="M17.3438 11.3408C17.3438 12.4248 17.1289 13.3867 16.6992 14.2266C16.2793 15.0566 15.6934 15.7451 14.9414 16.292C14.1992 16.8389 13.3838 17.2393 12.4951 17.4932C11.6064 17.7471 10.6641 17.874 9.66797 17.874H7.33887V24.1729C7.33887 24.5146 7.39258 24.8174 7.5 25.0811C7.61719 25.335 7.85156 25.5303 8.20312 25.667C8.37891 25.7354 8.68652 25.7988 9.12598 25.8574C9.5752 25.916 9.98535 25.9502 10.3564 25.96V27H1.43555V25.96C1.66992 25.9404 2.00684 25.9062 2.44629 25.8574C2.89551 25.8086 3.20801 25.7451 3.38379 25.667C3.67676 25.54 3.88672 25.3545 4.01367 25.1104C4.15039 24.8662 4.21875 24.5537 4.21875 24.1729V9.17285C4.21875 8.83105 4.16992 8.52344 4.07227 8.25C3.97461 7.97656 3.74512 7.77148 3.38379 7.63477C3.0127 7.50781 2.6416 7.41992 2.27051 7.37109C1.90918 7.3125 1.59668 7.27344 1.33301 7.25391V6.21387H10.8252C12.7588 6.21387 14.3262 6.68262 15.5273 7.62012C16.7383 8.54785 17.3438 9.78809 17.3438 11.3408ZM12.8906 14.8857C13.2227 14.417 13.4424 13.9336 13.5498 13.4355C13.6572 12.9277 13.7109 12.4736 13.7109 12.0732C13.7109 11.5166 13.6426 10.9502 13.5059 10.374C13.3789 9.79785 13.1543 9.29492 12.832 8.86523C12.4902 8.40625 12.041 8.0498 11.4844 7.7959C10.9277 7.54199 10.2344 7.41504 9.4043 7.41504H7.33887V16.5996H8.83301C9.8877 16.5996 10.7422 16.4385 11.3965 16.1162C12.0605 15.7842 12.5586 15.374 12.8906 14.8857ZM39.126 27H30.4688V25.96C31.2305 25.9111 31.8604 25.8135 32.3584 25.667C32.8662 25.5205 33.1201 25.3398 33.1201 25.125C33.1201 25.0371 33.1104 24.9297 33.0908 24.8027C33.0713 24.6758 33.042 24.5635 33.0029 24.4658L31.2744 19.8076H23.9941C23.7207 20.4912 23.4961 21.0869 23.3203 21.5947C23.1543 22.1025 23.0029 22.5713 22.8662 23.001C22.7393 23.4209 22.6514 23.7627 22.6025 24.0264C22.5537 24.29 22.5293 24.5049 22.5293 24.6709C22.5293 25.0615 22.8369 25.3643 23.4521 25.5791C24.0674 25.7939 24.7607 25.9209 25.5322 25.96V27H17.71V25.96C17.9639 25.9404 18.2812 25.8867 18.6621 25.7988C19.043 25.7012 19.3555 25.5742 19.5996 25.418C19.9902 25.1543 20.293 24.8809 20.5078 24.5977C20.7227 24.3047 20.9326 23.9043 21.1377 23.3965C22.1826 20.7891 23.335 17.8594 24.5947 14.6074C25.8545 11.3555 26.9775 8.45996 27.9639 5.9209H29.1357L36.0645 23.8506C36.2109 24.2314 36.377 24.5391 36.5625 24.7734C36.748 25.0078 37.0068 25.2373 37.3389 25.4619C37.5635 25.5986 37.8564 25.7158 38.2178 25.8135C38.5791 25.9014 38.8818 25.9502 39.126 25.96V27ZM30.7471 18.5039L27.5977 10.4473L24.5068 18.5039H30.7471ZM61.2012 7.25391C60.9277 7.26367 60.5078 7.3418 59.9414 7.48828C59.375 7.63477 58.9697 7.78613 58.7256 7.94238C58.374 8.18652 58.1348 8.65527 58.0078 9.34863C57.8906 10.042 57.832 10.9209 57.832 11.9854V27.2051H56.5576L43.96 10.1982V20.9209C43.96 22.1221 44.0332 23.0449 44.1797 23.6895C44.3359 24.334 44.5703 24.793 44.8828 25.0664C45.1074 25.2812 45.5713 25.4814 46.2744 25.667C46.9775 25.8525 47.4414 25.9502 47.666 25.96V27H39.1406V25.96C39.4043 25.9404 39.8486 25.8477 40.4736 25.6816C41.0986 25.5059 41.4893 25.3496 41.6455 25.2129C41.9873 24.9395 42.2217 24.5244 42.3486 23.9678C42.4756 23.4014 42.5391 22.4395 42.5391 21.082V10.8428C42.5391 10.3936 42.4609 9.94434 42.3047 9.49512C42.1484 9.0459 41.9385 8.69922 41.6748 8.45508C41.3232 8.13281 40.8447 7.85937 40.2393 7.63477C39.6436 7.40039 39.1602 7.27344 38.7891 7.25391V6.21387H44.7217L56.4111 22.0635V12.1758C56.4111 10.9648 56.333 10.0371 56.1768 9.39258C56.0205 8.73828 55.7959 8.30371 55.5029 8.08887C55.2295 7.90332 54.7803 7.72266 54.1553 7.54688C53.54 7.37109 53.0713 7.27344 52.749 7.25391V6.21387H61.2012V7.25391Z" fill="#FF6A55"/>
<path d="M75.835 17.4639C76.2744 17.9521 76.5967 18.4893 76.8018 19.0752C77.0166 19.6514 77.124 20.3252 77.124 21.0967C77.124 22.9326 76.4453 24.4463 75.0879 25.6377C73.7305 26.8291 72.0459 27.4248 70.0342 27.4248C69.1064 27.4248 68.1787 27.2832 67.251 27C66.3232 26.707 65.5225 26.3555 64.8486 25.9453L64.2188 27.0146H63.0469L62.8418 19.8955H64.0283C64.2725 20.7744 64.5557 21.5703 64.8779 22.2832C65.21 22.9863 65.6445 23.6455 66.1816 24.2607C66.6895 24.8369 67.2803 25.2959 67.9541 25.6377C68.6377 25.9795 69.4287 26.1504 70.3271 26.1504C71.001 26.1504 71.5869 26.0625 72.085 25.8867C72.5928 25.7109 73.0029 25.4619 73.3154 25.1396C73.6279 24.8174 73.8574 24.4414 74.0039 24.0117C74.1602 23.5723 74.2383 23.0693 74.2383 22.5029C74.2383 21.6729 74.0039 20.9014 73.5352 20.1885C73.0664 19.4658 72.3682 18.9189 71.4404 18.5479C70.8057 18.2939 70.0781 18.0156 69.2578 17.7129C68.4375 17.4004 67.7295 17.1074 67.1338 16.834C65.9619 16.3066 65.0488 15.6182 64.3945 14.7686C63.75 13.9092 63.4277 12.791 63.4277 11.4141C63.4277 10.623 63.5889 9.88574 63.9111 9.20215C64.2334 8.51855 64.6924 7.9082 65.2881 7.37109C65.8545 6.86328 66.5234 6.46777 67.2949 6.18457C68.0664 5.8916 68.8721 5.74512 69.7119 5.74512C70.6689 5.74512 71.5234 5.8916 72.2754 6.18457C73.0371 6.47754 73.7305 6.81934 74.3555 7.20996L74.9561 6.21387H76.1279L76.2451 13.1133H75.0586C74.8438 12.3223 74.5996 11.5654 74.3262 10.8428C74.0625 10.1201 73.7158 9.46582 73.2861 8.87988C72.8662 8.31348 72.3535 7.86426 71.748 7.53223C71.1426 7.19043 70.4004 7.01953 69.5215 7.01953C68.5938 7.01953 67.8027 7.31738 67.1484 7.91309C66.4941 8.50879 66.167 9.23633 66.167 10.0957C66.167 10.9941 66.377 11.7412 66.7969 12.3369C67.2168 12.9229 67.8271 13.4062 68.6279 13.7871C69.3408 14.1289 70.0391 14.4268 70.7227 14.6807C71.416 14.9248 72.085 15.1885 72.7295 15.4717C73.3154 15.7256 73.877 16.0137 74.4141 16.3359C74.9609 16.6582 75.4346 17.0342 75.835 17.4639ZM96.5332 8.6748C97.4512 9.63184 98.1689 10.7891 98.6865 12.1465C99.2041 13.4941 99.4629 14.9883 99.4629 16.6289C99.4629 18.2793 99.1992 19.7783 98.6719 21.126C98.1445 22.4736 97.4121 23.6211 96.4746 24.5684C95.5664 25.5059 94.5117 26.2285 93.3105 26.7363C92.1094 27.2441 90.8301 27.498 89.4727 27.498C88.0273 27.498 86.6895 27.2295 85.459 26.6924C84.2383 26.1455 83.1885 25.3887 82.3096 24.4219C81.4307 23.4746 80.7373 22.3271 80.2295 20.9795C79.7314 19.6221 79.4824 18.1719 79.4824 16.6289C79.4824 14.9395 79.7461 13.4355 80.2734 12.1172C80.8008 10.7891 81.5283 9.6416 82.4561 8.6748C83.374 7.71777 84.4385 6.98535 85.6494 6.47754C86.8701 5.96973 88.1445 5.71582 89.4727 5.71582C90.8496 5.71582 92.1484 5.97461 93.3691 6.49219C94.5898 7.00977 95.6445 7.7373 96.5332 8.6748ZM94.3506 23.4111C94.8975 22.5225 95.293 21.5166 95.5371 20.3936C95.791 19.2705 95.918 18.0156 95.918 16.6289C95.918 15.2031 95.7764 13.8945 95.4932 12.7031C95.2197 11.5117 94.8145 10.4961 94.2773 9.65625C93.7402 8.82617 93.0664 8.18164 92.2559 7.72266C91.4453 7.25391 90.5176 7.01953 89.4727 7.01953C88.3008 7.01953 87.3047 7.28809 86.4844 7.8252C85.6641 8.3623 84.9951 9.08008 84.4775 9.97852C83.9893 10.8379 83.623 11.8437 83.3789 12.9961C83.1445 14.1484 83.0273 15.3594 83.0273 16.6289C83.0273 18.0352 83.1543 19.3047 83.4082 20.4375C83.6621 21.5703 84.0625 22.5762 84.6094 23.4551C85.1367 24.3145 85.8008 24.9883 86.6016 25.4766C87.4023 25.9551 88.3594 26.1943 89.4727 26.1943C90.5176 26.1943 91.46 25.9502 92.2998 25.4619C93.1396 24.9736 93.8232 24.29 94.3506 23.4111ZM118.755 20.8184L118.315 27H102.07V25.96C102.305 25.9404 102.642 25.9062 103.081 25.8574C103.53 25.8086 103.843 25.7451 104.019 25.667C104.312 25.54 104.521 25.3545 104.648 25.1104C104.785 24.8662 104.854 24.5537 104.854 24.1729V9.29004C104.854 8.95801 104.795 8.66504 104.678 8.41113C104.57 8.15723 104.351 7.95215 104.019 7.7959C103.794 7.67871 103.477 7.56641 103.066 7.45898C102.666 7.3418 102.334 7.27344 102.07 7.25391V6.21387H110.845V7.25391C110.571 7.26367 110.215 7.3125 109.775 7.40039C109.346 7.48828 109.033 7.56641 108.838 7.63477C108.506 7.75195 108.276 7.95215 108.149 8.23535C108.032 8.51855 107.974 8.82129 107.974 9.14355V23.1035C107.974 23.748 108.003 24.251 108.062 24.6123C108.13 24.9639 108.281 25.2373 108.516 25.4326C108.74 25.6084 109.072 25.7256 109.512 25.7842C109.961 25.833 110.586 25.8574 111.387 25.8574C111.748 25.8574 112.124 25.8477 112.515 25.8281C112.905 25.8086 113.276 25.7695 113.628 25.7109C113.97 25.6523 114.282 25.5742 114.565 25.4766C114.858 25.3691 115.073 25.2373 115.21 25.0811C115.61 24.6318 116.074 23.9531 116.602 23.0449C117.139 22.127 117.51 21.3848 117.715 20.8184H118.755Z" fill="black"/>
<path d="M5.68 40.26H8.12V41H4.77V34.03H5.68V40.26ZM15.0764 41.09C14.5631 41.09 14.0964 40.9733 13.6764 40.74C13.2631 40.5067 12.9364 40.1767 12.6964 39.75C12.4631 39.3167 12.3464 38.8167 12.3464 38.25C12.3464 37.69 12.4664 37.1967 12.7064 36.77C12.9531 36.3367 13.2864 36.0067 13.7064 35.78C14.1264 35.5467 14.5964 35.43 15.1164 35.43C15.6364 35.43 16.1064 35.5467 16.5264 35.78C16.9464 36.0067 17.2764 36.3333 17.5164 36.76C17.7631 37.1867 17.8864 37.6833 17.8864 38.25C17.8864 38.8167 17.7597 39.3167 17.5064 39.75C17.2597 40.1767 16.9231 40.5067 16.4964 40.74C16.0697 40.9733 15.5964 41.09 15.0764 41.09ZM15.0764 40.29C15.4031 40.29 15.7097 40.2133 15.9964 40.06C16.2831 39.9067 16.5131 39.6767 16.6864 39.37C16.8664 39.0633 16.9564 38.69 16.9564 38.25C16.9564 37.81 16.8697 37.4367 16.6964 37.13C16.5231 36.8233 16.2964 36.5967 16.0164 36.45C15.7364 36.2967 15.4331 36.22 15.1064 36.22C14.7731 36.22 14.4664 36.2967 14.1864 36.45C13.9131 36.5967 13.6931 36.8233 13.5264 37.13C13.3597 37.4367 13.2764 37.81 13.2764 38.25C13.2764 38.6967 13.3564 39.0733 13.5164 39.38C13.6831 39.6867 13.9031 39.9167 14.1764 40.07C14.4497 40.2167 14.7497 40.29 15.0764 40.29ZM23.5929 36.53C23.7729 36.2167 24.0396 35.9567 24.3929 35.75C24.7529 35.5367 25.1696 35.43 25.6429 35.43C26.1296 35.43 26.5696 35.5467 26.9629 35.78C27.3629 36.0133 27.6762 36.3433 27.9029 36.77C28.1296 37.19 28.2429 37.68 28.2429 38.24C28.2429 38.7933 28.1296 39.2867 27.9029 39.72C27.6762 40.1533 27.3629 40.49 26.9629 40.73C26.5696 40.97 26.1296 41.09 25.6429 41.09C25.1762 41.09 24.7629 40.9867 24.4029 40.78C24.0496 40.5667 23.7796 40.3033 23.5929 39.99V43.6H22.6829V35.52H23.5929V36.53ZM27.3129 38.24C27.3129 37.8267 27.2296 37.4667 27.0629 37.16C26.8962 36.8533 26.6696 36.62 26.3829 36.46C26.1029 36.3 25.7929 36.22 25.4529 36.22C25.1196 36.22 24.8096 36.3033 24.5229 36.47C24.2429 36.63 24.0162 36.8667 23.8429 37.18C23.6762 37.4867 23.5929 37.8433 23.5929 38.25C23.5929 38.6633 23.6762 39.0267 23.8429 39.34C24.0162 39.6467 24.2429 39.8833 24.5229 40.05C24.8096 40.21 25.1196 40.29 25.4529 40.29C25.7929 40.29 26.1029 40.21 26.3829 40.05C26.6696 39.8833 26.8962 39.6467 27.0629 39.34C27.2296 39.0267 27.3129 38.66 27.3129 38.24ZM38.0407 38.05C38.0407 38.2233 38.0307 38.4067 38.0107 38.6H33.6307C33.664 39.14 33.8474 39.5633 34.1807 39.87C34.5207 40.17 34.9307 40.32 35.4107 40.32C35.804 40.32 36.1307 40.23 36.3907 40.05C36.6574 39.8633 36.844 39.6167 36.9507 39.31H37.9307C37.784 39.8367 37.4907 40.2667 37.0507 40.6C36.6107 40.9267 36.064 41.09 35.4107 41.09C34.8907 41.09 34.424 40.9733 34.0107 40.74C33.604 40.5067 33.284 40.1767 33.0507 39.75C32.8174 39.3167 32.7007 38.8167 32.7007 38.25C32.7007 37.6833 32.814 37.1867 33.0407 36.76C33.2674 36.3333 33.584 36.0067 33.9907 35.78C34.404 35.5467 34.8774 35.43 35.4107 35.43C35.9307 35.43 36.3907 35.5433 36.7907 35.77C37.1907 35.9967 37.4974 36.31 37.7107 36.71C37.9307 37.1033 38.0407 37.55 38.0407 38.05ZM37.1007 37.86C37.1007 37.5133 37.024 37.2167 36.8707 36.97C36.7174 36.7167 36.5074 36.5267 36.2407 36.4C35.9807 36.2667 35.6907 36.2 35.3707 36.2C34.9107 36.2 34.5174 36.3467 34.1907 36.64C33.8707 36.9333 33.6874 37.34 33.6407 37.86H37.1007ZM43.5219 40.25H46.2119V41H42.4819V40.25L45.1419 36.26H42.5019V35.52H46.1919V36.26L43.5219 40.25ZM51.9327 39.74L50.8127 42.43H50.2027L50.9327 39.74H51.9327ZM68.4311 42.32L67.0411 40.93C66.7011 41.0233 66.3544 41.07 66.0011 41.07C65.3544 41.07 64.7644 40.92 64.2311 40.62C63.6978 40.3133 63.2744 39.89 62.9611 39.35C62.6544 38.8033 62.5011 38.19 62.5011 37.51C62.5011 36.83 62.6544 36.22 62.9611 35.68C63.2744 35.1333 63.6978 34.71 64.2311 34.41C64.7644 34.1033 65.3544 33.95 66.0011 33.95C66.6544 33.95 67.2478 34.1033 67.7811 34.41C68.3144 34.71 68.7344 35.13 69.0411 35.67C69.3478 36.21 69.5011 36.8233 69.5011 37.51C69.5011 38.1767 69.3544 38.7767 69.0611 39.31C68.7678 39.8433 68.3644 40.2633 67.8511 40.57L69.6111 42.32H68.4311ZM63.4311 37.51C63.4311 38.0633 63.5411 38.55 63.7611 38.97C63.9878 39.39 64.2944 39.7133 64.6811 39.94C65.0744 40.1667 65.5144 40.28 66.0011 40.28C66.4878 40.28 66.9244 40.1667 67.3111 39.94C67.7044 39.7133 68.0111 39.39 68.2311 38.97C68.4578 38.55 68.5711 38.0633 68.5711 37.51C68.5711 36.95 68.4578 36.4633 68.2311 36.05C68.0111 35.63 67.7078 35.3067 67.3211 35.08C66.9344 34.8533 66.4944 34.74 66.0011 34.74C65.5078 34.74 65.0678 34.8533 64.6811 35.08C64.2944 35.3067 63.9878 35.63 63.7611 36.05C63.5411 36.4633 63.4311 36.95 63.4311 37.51ZM79.182 35.52V41H78.272V40.19C78.0986 40.47 77.8553 40.69 77.542 40.85C77.2353 41.0033 76.8953 41.08 76.522 41.08C76.0953 41.08 75.712 40.9933 75.372 40.82C75.032 40.64 74.762 40.3733 74.562 40.02C74.3686 39.6667 74.272 39.2367 74.272 38.73V35.52H75.172V38.61C75.172 39.15 75.3086 39.5667 75.582 39.86C75.8553 40.1467 76.2286 40.29 76.702 40.29C77.1886 40.29 77.572 40.14 77.852 39.84C78.132 39.54 78.272 39.1033 78.272 38.53V35.52H79.182ZM89.3184 38.05C89.3184 38.2233 89.3084 38.4067 89.2884 38.6H84.9084C84.9418 39.14 85.1251 39.5633 85.4584 39.87C85.7984 40.17 86.2084 40.32 86.6884 40.32C87.0818 40.32 87.4084 40.23 87.6684 40.05C87.9351 39.8633 88.1218 39.6167 88.2284 39.31H89.2084C89.0618 39.8367 88.7684 40.2667 88.3284 40.6C87.8884 40.9267 87.3418 41.09 86.6884 41.09C86.1684 41.09 85.7018 40.9733 85.2884 40.74C84.8818 40.5067 84.5618 40.1767 84.3284 39.75C84.0951 39.3167 83.9784 38.8167 83.9784 38.25C83.9784 37.6833 84.0918 37.1867 84.3184 36.76C84.5451 36.3333 84.8618 36.0067 85.2684 35.78C85.6818 35.5467 86.1551 35.43 86.6884 35.43C87.2084 35.43 87.6684 35.5433 88.0684 35.77C88.4684 35.9967 88.7751 36.31 88.9884 36.71C89.2084 37.1033 89.3184 37.55 89.3184 38.05ZM88.3784 37.86C88.3784 37.5133 88.3018 37.2167 88.1484 36.97C87.9951 36.7167 87.7851 36.5267 87.5184 36.4C87.2584 36.2667 86.9684 36.2 86.6484 36.2C86.1884 36.2 85.7951 36.3467 85.4684 36.64C85.1484 36.9333 84.9651 37.34 84.9184 37.86H88.3784ZM94.7996 40.25H97.4896V41H93.7596V40.25L96.4196 36.26H93.7796V35.52H97.4696V36.26L94.7996 40.25ZM104.66 41.09C104.147 41.09 103.68 40.9733 103.26 40.74C102.847 40.5067 102.52 40.1767 102.28 39.75C102.047 39.3167 101.93 38.8167 101.93 38.25C101.93 37.69 102.05 37.1967 102.29 36.77C102.537 36.3367 102.87 36.0067 103.29 35.78C103.71 35.5467 104.18 35.43 104.7 35.43C105.22 35.43 105.69 35.5467 106.11 35.78C106.53 36.0067 106.86 36.3333 107.1 36.76C107.347 37.1867 107.47 37.6833 107.47 38.25C107.47 38.8167 107.344 39.3167 107.09 39.75C106.844 40.1767 106.507 40.5067 106.08 40.74C105.654 40.9733 105.18 41.09 104.66 41.09ZM104.66 40.29C104.987 40.29 105.294 40.2133 105.58 40.06C105.867 39.9067 106.097 39.6767 106.27 39.37C106.45 39.0633 106.54 38.69 106.54 38.25C106.54 37.81 106.454 37.4367 106.28 37.13C106.107 36.8233 105.88 36.5967 105.6 36.45C105.32 36.2967 105.017 36.22 104.69 36.22C104.357 36.22 104.05 36.2967 103.77 36.45C103.497 36.5967 103.277 36.8233 103.11 37.13C102.944 37.4367 102.86 37.81 102.86 38.25C102.86 38.6967 102.94 39.0733 103.1 39.38C103.267 39.6867 103.487 39.9167 103.76 40.07C104.034 40.2167 104.334 40.29 104.66 40.29ZM114.937 35.42C115.604 35.42 116.144 35.6233 116.557 36.03C116.97 36.43 117.177 37.01 117.177 37.77V41H116.277V37.9C116.277 37.3533 116.14 36.9367 115.867 36.65C115.594 36.3567 115.22 36.21 114.747 36.21C114.267 36.21 113.884 36.36 113.597 36.66C113.317 36.96 113.177 37.3967 113.177 37.97V41H112.267V35.52H113.177V36.3C113.357 36.02 113.6 35.8033 113.907 35.65C114.22 35.4967 114.564 35.42 114.937 35.42Z" fill="#272727"/>
</svg>
