<svg width="118" height="23" viewBox="0 0 118 23" fill="none" xmlns="http://www.w3.org/2000/svg">
<path d="M16.3438 6.34082C16.3438 7.4248 16.1289 8.38672 15.6992 9.22656C15.2793 10.0566 14.6934 10.7451 13.9414 11.292C13.1992 11.8389 12.3838 12.2393 11.4951 12.4932C10.6064 12.7471 9.66406 12.874 8.66797 12.874H6.33887V19.1729C6.33887 19.5146 6.39258 19.8174 6.5 20.0811C6.61719 20.335 6.85156 20.5303 7.20312 20.667C7.37891 20.7354 7.68652 20.7988 8.12598 20.8574C8.5752 20.916 8.98535 20.9502 9.35645 20.96V22H0.435547V20.96C0.669922 20.9404 1.00684 20.9062 1.44629 20.8574C1.89551 20.8086 2.20801 20.7451 2.38379 20.667C2.67676 20.54 2.88672 20.3545 3.01367 20.1104C3.15039 19.8662 3.21875 19.5537 3.21875 19.1729V4.17285C3.21875 3.83105 3.16992 3.52344 3.07227 3.25C2.97461 2.97656 2.74512 2.77148 2.38379 2.63477C2.0127 2.50781 1.6416 2.41992 1.27051 2.37109C0.90918 2.3125 0.59668 2.27344 0.333008 2.25391V1.21387H9.8252C11.7588 1.21387 13.3262 1.68262 14.5273 2.62012C15.7383 3.54785 16.3438 4.78809 16.3438 6.34082ZM11.8906 9.88574C12.2227 9.41699 12.4424 8.93359 12.5498 8.43555C12.6572 7.92773 12.7109 7.47363 12.7109 7.07324C12.7109 6.5166 12.6426 5.9502 12.5059 5.37402C12.3789 4.79785 12.1543 4.29492 11.832 3.86523C11.4902 3.40625 11.041 3.0498 10.4844 2.7959C9.92773 2.54199 9.23438 2.41504 8.4043 2.41504H6.33887V11.5996H7.83301C8.8877 11.5996 9.74219 11.4385 10.3965 11.1162C11.0605 10.7842 11.5586 10.374 11.8906 9.88574ZM38.126 22H29.4688V20.96C30.2305 20.9111 30.8604 20.8135 31.3584 20.667C31.8662 20.5205 32.1201 20.3398 32.1201 20.125C32.1201 20.0371 32.1104 19.9297 32.0908 19.8027C32.0713 19.6758 32.042 19.5635 32.0029 19.4658L30.2744 14.8076H22.9941C22.7207 15.4912 22.4961 16.0869 22.3203 16.5947C22.1543 17.1025 22.0029 17.5713 21.8662 18.001C21.7393 18.4209 21.6514 18.7627 21.6025 19.0264C21.5537 19.29 21.5293 19.5049 21.5293 19.6709C21.5293 20.0615 21.8369 20.3643 22.4521 20.5791C23.0674 20.7939 23.7607 20.9209 24.5322 20.96V22H16.71V20.96C16.9639 20.9404 17.2812 20.8867 17.6621 20.7988C18.043 20.7012 18.3555 20.5742 18.5996 20.418C18.9902 20.1543 19.293 19.8809 19.5078 19.5977C19.7227 19.3047 19.9326 18.9043 20.1377 18.3965C21.1826 15.7891 22.335 12.8594 23.5947 9.60742C24.8545 6.35547 25.9775 3.45996 26.9639 0.920898H28.1357L35.0645 18.8506C35.2109 19.2314 35.377 19.5391 35.5625 19.7734C35.748 20.0078 36.0068 20.2373 36.3389 20.4619C36.5635 20.5986 36.8564 20.7158 37.2178 20.8135C37.5791 20.9014 37.8818 20.9502 38.126 20.96V22ZM29.7471 13.5039L26.5977 5.44727L23.5068 13.5039H29.7471ZM60.2012 2.25391C59.9277 2.26367 59.5078 2.3418 58.9414 2.48828C58.375 2.63477 57.9697 2.78613 57.7256 2.94238C57.374 3.18652 57.1348 3.65527 57.0078 4.34863C56.8906 5.04199 56.832 5.9209 56.832 6.98535V22.2051H55.5576L42.96 5.19824V15.9209C42.96 17.1221 43.0332 18.0449 43.1797 18.6895C43.3359 19.334 43.5703 19.793 43.8828 20.0664C44.1074 20.2812 44.5713 20.4814 45.2744 20.667C45.9775 20.8525 46.4414 20.9502 46.666 20.96V22H38.1406V20.96C38.4043 20.9404 38.8486 20.8477 39.4736 20.6816C40.0986 20.5059 40.4893 20.3496 40.6455 20.2129C40.9873 19.9395 41.2217 19.5244 41.3486 18.9678C41.4756 18.4014 41.5391 17.4395 41.5391 16.082V5.84277C41.5391 5.39355 41.4609 4.94434 41.3047 4.49512C41.1484 4.0459 40.9385 3.69922 40.6748 3.45508C40.3232 3.13281 39.8447 2.85937 39.2393 2.63477C38.6436 2.40039 38.1602 2.27344 37.7891 2.25391V1.21387H43.7217L55.4111 17.0635V7.17578C55.4111 5.96484 55.333 5.03711 55.1768 4.39258C55.0205 3.73828 54.7959 3.30371 54.5029 3.08887C54.2295 2.90332 53.7803 2.72266 53.1553 2.54688C52.54 2.37109 52.0713 2.27344 51.749 2.25391V1.21387H60.2012V2.25391Z" fill="#46379E"/>
<path d="M74.835 12.4639C75.2744 12.9521 75.5967 13.4893 75.8018 14.0752C76.0166 14.6514 76.124 15.3252 76.124 16.0967C76.124 17.9326 75.4453 19.4463 74.0879 20.6377C72.7305 21.8291 71.0459 22.4248 69.0342 22.4248C68.1064 22.4248 67.1787 22.2832 66.251 22C65.3232 21.707 64.5225 21.3555 63.8486 20.9453L63.2188 22.0146H62.0469L61.8418 14.8955H63.0283C63.2725 15.7744 63.5557 16.5703 63.8779 17.2832C64.21 17.9863 64.6445 18.6455 65.1816 19.2607C65.6895 19.8369 66.2803 20.2959 66.9541 20.6377C67.6377 20.9795 68.4287 21.1504 69.3271 21.1504C70.001 21.1504 70.5869 21.0625 71.085 20.8867C71.5928 20.7109 72.0029 20.4619 72.3154 20.1396C72.6279 19.8174 72.8574 19.4414 73.0039 19.0117C73.1602 18.5723 73.2383 18.0693 73.2383 17.5029C73.2383 16.6729 73.0039 15.9014 72.5352 15.1885C72.0664 14.4658 71.3682 13.9189 70.4404 13.5479C69.8057 13.2939 69.0781 13.0156 68.2578 12.7129C67.4375 12.4004 66.7295 12.1074 66.1338 11.834C64.9619 11.3066 64.0488 10.6182 63.3945 9.76855C62.75 8.90918 62.4277 7.79102 62.4277 6.41406C62.4277 5.62305 62.5889 4.88574 62.9111 4.20215C63.2334 3.51855 63.6924 2.9082 64.2881 2.37109C64.8545 1.86328 65.5234 1.46777 66.2949 1.18457C67.0664 0.891602 67.8721 0.745117 68.7119 0.745117C69.6689 0.745117 70.5234 0.891602 71.2754 1.18457C72.0371 1.47754 72.7305 1.81934 73.3555 2.20996L73.9561 1.21387H75.1279L75.2451 8.11328H74.0586C73.8438 7.32227 73.5996 6.56543 73.3262 5.84277C73.0625 5.12012 72.7158 4.46582 72.2861 3.87988C71.8662 3.31348 71.3535 2.86426 70.748 2.53223C70.1426 2.19043 69.4004 2.01953 68.5215 2.01953C67.5938 2.01953 66.8027 2.31738 66.1484 2.91309C65.4941 3.50879 65.167 4.23633 65.167 5.0957C65.167 5.99414 65.377 6.74121 65.7969 7.33691C66.2168 7.92285 66.8271 8.40625 67.6279 8.78711C68.3408 9.12891 69.0391 9.42676 69.7227 9.68066C70.416 9.9248 71.085 10.1885 71.7295 10.4717C72.3154 10.7256 72.877 11.0137 73.4141 11.3359C73.9609 11.6582 74.4346 12.0342 74.835 12.4639ZM95.5332 3.6748C96.4512 4.63184 97.1689 5.78906 97.6865 7.14648C98.2041 8.49414 98.4629 9.98828 98.4629 11.6289C98.4629 13.2793 98.1992 14.7783 97.6719 16.126C97.1445 17.4736 96.4121 18.6211 95.4746 19.5684C94.5664 20.5059 93.5117 21.2285 92.3105 21.7363C91.1094 22.2441 89.8301 22.498 88.4727 22.498C87.0273 22.498 85.6895 22.2295 84.459 21.6924C83.2383 21.1455 82.1885 20.3887 81.3096 19.4219C80.4307 18.4746 79.7373 17.3271 79.2295 15.9795C78.7314 14.6221 78.4824 13.1719 78.4824 11.6289C78.4824 9.93945 78.7461 8.43555 79.2734 7.11719C79.8008 5.78906 80.5283 4.6416 81.4561 3.6748C82.374 2.71777 83.4385 1.98535 84.6494 1.47754C85.8701 0.969727 87.1445 0.71582 88.4727 0.71582C89.8496 0.71582 91.1484 0.974609 92.3691 1.49219C93.5898 2.00977 94.6445 2.7373 95.5332 3.6748ZM93.3506 18.4111C93.8975 17.5225 94.293 16.5166 94.5371 15.3936C94.791 14.2705 94.918 13.0156 94.918 11.6289C94.918 10.2031 94.7764 8.89453 94.4932 7.70312C94.2197 6.51172 93.8145 5.49609 93.2773 4.65625C92.7402 3.82617 92.0664 3.18164 91.2559 2.72266C90.4453 2.25391 89.5176 2.01953 88.4727 2.01953C87.3008 2.01953 86.3047 2.28809 85.4844 2.8252C84.6641 3.3623 83.9951 4.08008 83.4775 4.97852C82.9893 5.83789 82.623 6.84375 82.3789 7.99609C82.1445 9.14844 82.0273 10.3594 82.0273 11.6289C82.0273 13.0352 82.1543 14.3047 82.4082 15.4375C82.6621 16.5703 83.0625 17.5762 83.6094 18.4551C84.1367 19.3145 84.8008 19.9883 85.6016 20.4766C86.4023 20.9551 87.3594 21.1943 88.4727 21.1943C89.5176 21.1943 90.46 20.9502 91.2998 20.4619C92.1396 19.9736 92.8232 19.29 93.3506 18.4111ZM117.755 15.8184L117.315 22H101.07V20.96C101.305 20.9404 101.642 20.9062 102.081 20.8574C102.53 20.8086 102.843 20.7451 103.019 20.667C103.312 20.54 103.521 20.3545 103.648 20.1104C103.785 19.8662 103.854 19.5537 103.854 19.1729V4.29004C103.854 3.95801 103.795 3.66504 103.678 3.41113C103.57 3.15723 103.351 2.95215 103.019 2.7959C102.794 2.67871 102.477 2.56641 102.066 2.45898C101.666 2.3418 101.334 2.27344 101.07 2.25391V1.21387H109.845V2.25391C109.571 2.26367 109.215 2.3125 108.775 2.40039C108.346 2.48828 108.033 2.56641 107.838 2.63477C107.506 2.75195 107.276 2.95215 107.149 3.23535C107.032 3.51855 106.974 3.82129 106.974 4.14355V18.1035C106.974 18.748 107.003 19.251 107.062 19.6123C107.13 19.9639 107.281 20.2373 107.516 20.4326C107.74 20.6084 108.072 20.7256 108.512 20.7842C108.961 20.833 109.586 20.8574 110.387 20.8574C110.748 20.8574 111.124 20.8477 111.515 20.8281C111.905 20.8086 112.276 20.7695 112.628 20.7109C112.97 20.6523 113.282 20.5742 113.565 20.4766C113.858 20.3691 114.073 20.2373 114.21 20.0811C114.61 19.6318 115.074 18.9531 115.602 18.0449C116.139 17.127 116.51 16.3848 116.715 15.8184H117.755Z" fill="#2B273E"/>
</svg>
